<?xml version="1.0" encoding="UTF-8"?>
<svg width="39.795mm" height="14.984mm" version="1.1" viewBox="0 0 39.795 14.984" xmlns="http://www.w3.org/2000/svg" xmlns:cc="http://creativecommons.org/ns#" xmlns:dc="http://purl.org/dc/elements/1.1/" xmlns:rdf="http://www.w3.org/1999/02/22-rdf-syntax-ns#">
 <metadata>
  <rdf:RDF>
   <cc:Work rdf:about="">
    <dc:format>image/svg+xml</dc:format>
    <dc:type rdf:resource="http://purl.org/dc/dcmitype/StillImage"/>
    <dc:title/>
   </cc:Work>
  </rdf:RDF>
 </metadata>
 <g transform="translate(-64.769 -69.615)">
  <g transform="matrix(.35278 0 0 -.35278 68.838 81.887)">
   <path d="m0 0-1.366 3.845h-6.95l-1.389-3.845h-1.83l5.814 15.634h1.922l5.814-15.634zm-4.123 11.42c-0.301 0.787-0.509 1.482-0.695 2.292h-0.046c-0.185-0.764-0.417-1.505-0.695-2.269l-2.27-6.185h5.976z" fill="#231f20"/>
   <g transform="translate(9.1413 10.006)">
    <path d="m0 0c-2.548 0.416-3.753-1.529-3.753-5.397v-4.61h-1.737v11.512h1.714c0-0.764-0.092-1.899-0.255-2.895l0.024-0.023c0.463 1.691 1.668 3.404 4.076 3.127z" fill="#231f20"/>
    <g transform="translate(4.9235 -16.051)">
     <path d="m0 0c-2.919 0-4.795 1.181-4.795 3.382 0 1.436 0.903 2.501 1.992 3.057-0.718 0.324-1.158 0.926-1.158 1.668 0 0.787 0.463 1.505 1.274 1.875-1.158 0.672-1.714 1.854-1.714 3.336 0 2.409 1.876 4.447 5.003 4.447 0.431 0 0.791-0.031 1.16-0.092 0.187-0.031 1.719-0.116 1.982-0.116h2.51v-1.367h-1.374c-0.114 0-0.779 0.043-0.779 0.043l0.068-0.043c0.664-0.536 1.112-1.436 1.112-2.525 0-2.455-1.691-4.331-5.003-4.331-0.533 0-1.158 0.07-1.575 0.162-0.58-0.208-0.857-0.625-0.857-1.042 0-0.672 0.648-0.973 2.084-0.973h2.247c2.501 0 3.868-1.228 3.868-3.243 0-2.432-2.501-4.238-6.045-4.238m1.69 5.976h-2.362c-0.231 0-0.533 0-0.741 0.023-0.996-0.51-1.645-1.344-1.645-2.317 0-1.482 1.436-2.269 3.359-2.269 2.524 0 4.007 1.065 4.007 2.594 0 1.227-0.857 1.969-2.618 1.969m-1.181 10.446c-1.992 0-3.173-1.228-3.173-2.919 0-1.876 1.135-2.872 3.08-2.872 1.9 0 3.128 1.019 3.128 2.872s-1.136 2.919-3.035 2.919" fill="#231f20"/>
     <g transform="translate(12.222 5.8362)">
      <path d="m0 0c-3.081 0-5.072 1.877-5.072 5.907 0 3.289 2.039 6.022 5.489 6.022 2.803 0 5.096-1.552 5.096-5.767 0-3.429-2.108-6.162-5.513-6.162m0.255 10.493c-1.806 0-3.521-1.367-3.521-4.447 0-2.942 1.274-4.563 3.521-4.563 1.807 0 3.451 1.39 3.451 4.563 0 2.779-1.158 4.447-3.451 4.447" fill="#231f20"/>
      <g transform="translate(15.035 .20869)">
       <path d="m0 0v7.458c0 1.807-0.486 2.849-2.154 2.849-2.062 0-3.521-2.038-3.521-4.771v-5.536h-1.737v11.512h1.714c0-0.741-0.07-1.853-0.185-2.548l0.046-0.023c0.649 1.667 2.107 2.803 4.123 2.803 2.64 0 3.451-1.668 3.451-3.707v-8.037z" fill="#231f20"/>
       <g transform="translate(12.039)">
        <path d="m0 0v7.458c0 1.807-0.487 2.849-2.154 2.849-2.062 0-3.52-2.038-3.52-4.771v-5.536h-1.738v11.512h1.714c0-0.741-0.069-1.853-0.185-2.548l0.046-0.023c0.649 1.667 2.108 2.803 4.123 2.803 2.641 0 3.451-1.668 3.451-3.707v-8.037z" fill="#231f20"/>
        <g transform="translate(13.367 6.1151)">
         <path d="m0 0h-7.69c-0.116-3.451 1.251-4.887 3.822-4.887 1.205 0 2.478 0.301 3.335 0.741l0.162-1.482c-1.065-0.441-2.363-0.696-3.798-0.696-3.475 0-5.328 1.877-5.328 5.907 0 3.451 1.853 6.022 5.05 6.022 3.173 0 4.493-2.2 4.493-4.748 0-0.209 0-0.51-0.046-0.857m-4.54 4.285c-1.621 0-2.779-1.181-3.057-2.988h5.836c0.047 1.783-1.019 2.988-2.779 2.988" fill="#231f20"/>
         <g transform="translate(-40.531 -13.74)">
          <path d="m0 0-1.119 1.926c-0.169 0.289-0.299 0.573-0.412 0.821 0.023-0.328 0.033-0.927 0.033-1.384v-1.363h-0.711v3.815h0.954l1.063-1.82c0.175-0.293 0.328-0.61 0.469-0.898-0.028 0.383-0.04 1.062-0.04 1.531v1.187h0.713v-3.815z" fill="#231f20"/>
          <g transform="translate(4.7791)">
           <path d="m0 0-0.265 0.78h-1.442l-0.265-0.78h-0.741l1.334 3.815h0.831l1.362-3.815zm-0.814 2.362c-0.073 0.21-0.129 0.396-0.175 0.611h-5e-3c-0.046-0.198-0.109-0.419-0.182-0.639l-0.344-0.971h1.063z" fill="#231f20"/>
           <g transform="translate(2.9703 3.1875)">
            <path d="m0 0v-3.188h-0.735v3.188h-0.989v0.627h2.713v-0.627z" fill="#231f20"/>
            <g transform="translate(-472.68 -75.249)">
             <path d="m474.87 75.876h0.735v-3.815h-0.735z" fill="#231f20"/>
             <g transform="translate(478.71 72)">
              <path d="m0 0c-1.165 0-1.736 0.74-1.736 1.922 0 1.26 0.842 2.017 1.865 2.017 1.018 0 1.735-0.61 1.735-1.916 0-1.261-0.831-2.023-1.864-2.023m0.063 3.278c-0.527 0-1.013-0.419-1.013-1.277 0-0.809 0.316-1.335 1.001-1.335 0.496 0 1.028 0.385 1.028 1.3 0 0.848-0.362 1.312-1.016 1.312" fill="#231f20"/>
              <g transform="translate(5.3436 .061905)">
               <path d="m0 0-1.12 1.926c-0.169 0.289-0.298 0.573-0.412 0.821 0.024-0.328 0.034-0.927 0.034-1.384v-1.363h-0.712v3.815h0.956l1.062-1.82c0.175-0.293 0.328-0.61 0.469-0.898-0.028 0.383-0.04 1.062-0.04 1.531v1.187h0.712v-3.815z" fill="#231f20"/>
               <g transform="translate(4.7879)">
                <path d="m0 0-0.266 0.78h-1.441l-0.266-0.78h-0.74l1.335 3.815h0.83l1.362-3.815zm-0.814 2.362c-0.073 0.21-0.129 0.396-0.175 0.611h-5e-3c-0.046-0.198-0.109-0.419-0.182-0.639l-0.344-0.971h1.062z" fill="#231f20"/>
                <g transform="translate(1.9597)">
                 <path d="m0 0v3.815h0.734v-3.171h1.238v-0.644z" fill="#231f20"/>
                 <g transform="translate(5.0543)">
                  <path d="m0 0v3.815h0.735v-3.171h1.237v-0.644z" fill="#231f20"/>
                  <g transform="translate(5.5221)">
                   <path d="m0 0-0.266 0.78h-1.441l-0.265-0.78h-0.741l1.334 3.815h0.831l1.362-3.815zm-0.814 2.362c-0.073 0.21-0.129 0.396-0.175 0.611h-6e-3c-0.044-0.198-0.107-0.419-0.181-0.639l-0.344-0.971h1.063z" fill="#231f20"/>
                   <g transform="translate(3.0343 -.011398)">
                    <path d="m0 0c-0.232 0-0.633 0.011-1.113 0.011v3.809c0.322 0.018 0.82 0.029 1.288 0.029 0.825 0 1.284-0.334 1.284-0.944 0-0.378-0.243-0.712-0.606-0.854v-0.01c0.453-0.097 0.679-0.47 0.679-0.854 0-0.554-0.378-1.187-1.532-1.187m0.051 3.255c-0.152 0-0.299-5e-3 -0.429-0.012v-0.993c0.09-6e-3 0.18-6e-3 0.3-6e-3 0.502 0 0.762 0.203 0.762 0.542 0 0.283-0.169 0.469-0.633 0.469m-0.107-1.559-0.322-5e-3v-1.07c0.09-0.011 0.23-0.022 0.401-0.022 0.48 0 0.724 0.226 0.724 0.57 0 0.374-0.323 0.527-0.803 0.527" fill="#231f20"/>
                    <g transform="translate(4.3855 -.050507)">
                     <path d="m0 0c-1.163 0-1.735 0.74-1.735 1.922 0 1.26 0.843 2.017 1.865 2.017 1.018 0 1.735-0.61 1.735-1.916 0-1.261-0.83-2.023-1.865-2.023m0.063 3.278c-0.526 0-1.012-0.419-1.012-1.277 0-0.809 0.316-1.335 1-1.335 0.497 0 1.029 0.385 1.029 1.3 0 0.848-0.362 1.312-1.017 1.312" fill="#231f20"/>
                     <g transform="translate(4.98 .061905)">
                      <path d="m0 0-1.063 1.577h-0.029v-1.577h-0.734v3.815c0.299 0.017 0.656 0.022 1.096 0.022 0.843 0 1.386-0.294 1.386-1.074 0-0.564-0.397-0.971-0.974-1.061 0.108-0.142 0.216-0.289 0.312-0.419l0.916-1.283zm-0.803 3.238c-0.108 0-0.216-6e-3 -0.289-0.017v-1.102c0.052-5e-3 0.153-0.012 0.266-0.012 0.441 0 0.712 0.227 0.712 0.583 0 0.368-0.226 0.548-0.689 0.548" fill="#231f20"/>
                      <g transform="translate(11.215 -.061905)">
                       <path d="m0 0c-1.164 0-1.735 0.74-1.735 1.922 0 1.26 0.843 2.017 1.865 2.017 1.017 0 1.735-0.61 1.735-1.916 0-1.261-0.83-2.023-1.865-2.023m0.063 3.278c-0.526 0-1.012-0.419-1.012-1.277 0-0.809 0.316-1.335 1-1.335 0.497 0 1.029 0.385 1.029 1.3 0 0.848-0.362 1.312-1.017 1.312" fill="#231f20"/>
                       <g transform="translate(4.9221 .061905)">
                        <path d="m0 0-1.063 1.577h-0.029v-1.577h-0.734v3.815c0.299 0.017 0.656 0.022 1.096 0.022 0.842 0 1.386-0.294 1.386-1.074 0-0.564-0.397-0.971-0.974-1.061 0.108-0.142 0.216-0.289 0.311-0.419l0.916-1.283zm-0.803 3.238c-0.108 0-0.216-6e-3 -0.289-0.017v-1.102c0.052-5e-3 0.153-0.012 0.266-0.012 0.44 0 0.712 0.227 0.712 0.583 0 0.368-0.226 0.548-0.689 0.548" fill="#231f20"/>
                        <g transform="translate(-11.593)">
                         <path d="m0 0-0.265 0.78h-1.441l-0.265-0.78h-0.741l1.334 3.815h0.83l1.363-3.815zm-0.813 2.362c-0.074 0.21-0.13 0.396-0.176 0.611h-6e-3c-0.044-0.198-0.107-0.419-0.18-0.639l-0.345-0.971h1.062z" fill="#231f20"/>
                         <g transform="translate(3.1534 3.1875)">
                          <path d="m0 0v-3.188h-0.735v3.188h-0.989v0.627h2.713v-0.627z" fill="#231f20"/>
                          <g transform="translate(11.785 -1.8361)">
                           <path d="m0 0v-1.351h-0.734v1.344l-1.192 2.47h0.802l0.503-1.096c0.102-0.226 0.186-0.435 0.259-0.633h0.012c0.08 0.22 0.192 0.463 0.305 0.707l0.481 1.022h0.779z" fill="#231f20"/>
                           <g transform="translate(-15.329 21.946)">
                            <path d="m0 0h-11.036l5.518-9.557z" fill="#00a650"/>
                            <g transform="translate(11.036)">
                             <path d="m0 0h-11.036l-5.517-9.557h22.071z" fill="#00adef"/>
                             <g transform="translate(11.035)">
                              <path d="m0 0h-11.035l5.518-9.557z" fill="#2e3192"/>
                              <g transform="translate(-11.035)">
                               <path d="m0 0h-11.036l5.518 9.557z" fill="#fff"/>
                               <g transform="translate(0 19.114)">
                                <path d="m0 0h-11.035l5.517-9.557z" fill="#ad252b"/>
                                <path d="m0 0-5.518-9.557 5.518-9.557h11.035z" fill="#ed1c24"/>
                                <g transform="translate(-11.035 -19.114)">
                                 <path d="M 0,0 5.517,9.557 0,19.114 -11.036,0 Z" fill="#80cc28"/>
                                </g>
                               </g>
                              </g>
                             </g>
                            </g>
                           </g>
                          </g>
                         </g>
                        </g>
                       </g>
                      </g>
                     </g>
                    </g>
                   </g>
                  </g>
                 </g>
                </g>
               </g>
              </g>
             </g>
            </g>
           </g>
          </g>
         </g>
        </g>
       </g>
      </g>
     </g>
    </g>
   </g>
  </g>
 </g>
</svg>
