<?xml version="1.0" encoding="UTF-8"?>
<!-- Generator: Adobe Illustrator 22.1.0, SVG Export Plug-In . SVG Version: 6.00 Build 0)  -->
<svg version="1.1" id="Layer_1" xmlns="http://www.w3.org/2000/svg" xmlns:xlink="http://www.w3.org/1999/xlink" x="0px" y="0px" viewBox="0 0 276.5 102.3" style="enable-background:new 0 0 276.5 102.3;" xml:space="preserve">
<style type="text/css">
	.st0{fill:#B3B3B3;}
	.st1{fill:#ED1C24;}
</style>
<g>
	<path class="st0" d="M215,2.1c-1.8-3-8.1-2.7-18.7,0.8c-2.5,0.8-5.3,1.9-8.2,3.1c-15.9,6.4-37.5,17.7-63.4,33.1   C94.6,57,61.6,78.7,29.1,102c0,0-0.3,0.2-0.2,0.3c0.1,0.1,0.4-0.1,0.4-0.1C58.1,82,89.8,61.7,118.6,45.3   c28.9-16.6,53.6-28.6,69.5-33.9c10.8-3.6,17.2-4,18.9-1.2c2.4,4-4.9,14.8-20.8,30.8c0.1,0.1,0.2,0.2,0.3,0.4   C208,20.9,218,7.2,215,2.1z"/>
	<g>
		<path d="M0,57.2v-0.3h3.4l7.6,9.3V59c0-0.8-0.1-1.2-0.3-1.4c-0.2-0.3-0.6-0.4-1.1-0.4H9.2v-0.3h4.3v0.3h-0.4    c-0.5,0-0.9,0.2-1.1,0.5c-0.1,0.2-0.2,0.6-0.2,1.3v10.5h-0.3l-8.2-10v7.6c0,0.8,0.1,1.2,0.2,1.4c0.2,0.3,0.6,0.4,1.1,0.4H5v0.3    H0.7v-0.3h0.4c0.5,0,0.9-0.2,1.1-0.5c0.1-0.2,0.2-0.6,0.2-1.3v-8.6c-0.4-0.4-0.6-0.7-0.8-0.8c-0.2-0.1-0.5-0.3-0.8-0.4    C0.7,57.2,0.4,57.2,0,57.2z"/>
		<path d="M21.9,59.4l2.1,5h-4.3L21.9,59.4z M25.4,68.1c0,0.2-0.1,0.4-0.3,0.5c-0.2,0.1-0.5,0.2-1,0.2v0.3H29v-0.3    c-0.5,0-0.9-0.2-1.2-0.4c-0.3-0.2-0.6-0.8-0.9-1.6l-4.3-10.3h-0.3l-4.4,10.2c-0.4,0.9-0.7,1.5-1,1.8c-0.2,0.1-0.5,0.3-1,0.4v0.3    h3.9v-0.3c-0.6,0-1-0.1-1.2-0.3c-0.2-0.1-0.3-0.3-0.3-0.5s0.1-0.6,0.3-1.1l0.8-2h4.8l0.7,1.8C25.3,67.4,25.4,67.8,25.4,68.1z"/>
		<path d="M30.5,56.8h10.1l0.1,2.9h-0.3c-0.1-0.5-0.2-0.9-0.3-1.1c-0.2-0.4-0.4-0.6-0.8-0.8c-0.3-0.2-0.7-0.3-1.2-0.3h-1.7V67    c0,0.8,0.1,1.2,0.2,1.4c0.2,0.3,0.6,0.4,1.1,0.4h0.4v0.3h-5.3v-0.3h0.4c0.5,0,0.9-0.2,1.1-0.5c0.1-0.2,0.2-0.6,0.2-1.3v-9.5H33    c-0.6,0-1,0-1.2,0.1c-0.3,0.1-0.6,0.3-0.8,0.7c-0.2,0.3-0.4,0.8-0.4,1.3h-0.3L30.5,56.8z"/>
		<path d="M49.3,68.9h0.4v0.3h-5.3v-0.3h0.4c0.5,0,0.9-0.1,1.1-0.4c0.1-0.2,0.2-0.7,0.2-1.4v-8c0-0.6,0-1-0.1-1.2s-0.2-0.3-0.4-0.4    c-0.3-0.1-0.5-0.2-0.8-0.2h-0.4V57h5.3v0.3h-0.4c-0.5,0-0.9,0.2-1.1,0.4C48,57.9,48,58.4,48,59.1v8c0,0.6,0,1,0.1,1.2    s0.2,0.3,0.4,0.4C48.7,68.8,49,68.9,49.3,68.9z"/>
		<path d="M63.6,58.4c0.8,1,1.2,2.6,1.2,4.7c0,2-0.4,3.4-1.1,4.3c-0.8,0.9-1.7,1.4-2.9,1.4c-1.1,0-2-0.4-2.6-1.2    c-0.9-1.1-1.3-2.7-1.3-4.7c0-2,0.4-3.5,1.2-4.5c0.7-0.8,1.6-1.2,2.7-1.2C62,57.2,62.9,57.6,63.6,58.4z M56.8,58.2    c-1.3,1.2-2,2.8-2,4.8c0,1.9,0.6,3.5,1.7,4.7c1.2,1.2,2.6,1.8,4.3,1.8c1.7,0,3.1-0.6,4.3-1.9c1.2-1.2,1.8-2.8,1.8-4.7    c0-1.8-0.6-3.4-1.8-4.6c-1.2-1.2-2.6-1.8-4.2-1.8C59.3,56.5,58,57.1,56.8,58.2z"/>
		<path d="M183.1,58.4c0.8,1,1.3,2.6,1.3,4.7c0,2-0.4,3.4-1.1,4.3c-0.8,0.9-1.7,1.4-2.9,1.4c-1.1,0-2-0.4-2.6-1.2    c-0.9-1.1-1.3-2.7-1.3-4.7c0-2,0.4-3.5,1.3-4.5c0.7-0.8,1.6-1.2,2.7-1.2C181.5,57.2,182.5,57.6,183.1,58.4z M176.3,58.2    c-1.3,1.2-2,2.8-2,4.8c0,1.9,0.6,3.5,1.7,4.7c1.2,1.2,2.6,1.8,4.3,1.8c1.7,0,3.1-0.6,4.3-1.9c1.2-1.2,1.8-2.8,1.8-4.7    c0-1.8-0.6-3.4-1.8-4.6c-1.2-1.2-2.6-1.8-4.2-1.8C178.9,56.5,177.5,57.1,176.3,58.2z"/>
		<path d="M196,57.5c0.8,0,1.4,0.2,1.9,0.7s0.7,1.1,0.7,1.9s-0.3,1.4-0.9,2c-0.6,0.5-1.5,0.8-2.7,0.8c-0.1,0-0.1,0-0.2,0    s-0.2,0-0.3,0v-5.2C195.2,57.6,195.7,57.5,196,57.5z M201.7,68.4c-0.4-0.3-0.9-0.8-1.5-1.6l-2.6-3.6c1-0.2,1.8-0.6,2.3-1.2    s0.7-1.2,0.7-2c0-0.7-0.2-1.3-0.7-1.8c-0.4-0.5-1-0.9-1.6-1.1s-1.6-0.3-2.9-0.3h-4.5v0.3h0.5c0.5,0,0.8,0.1,1.1,0.4    c0.2,0.2,0.3,0.7,0.3,1.5v8c0,0.7-0.1,1.2-0.2,1.3c-0.2,0.3-0.6,0.5-1.1,0.5H191v0.3h5.3v-0.3h-0.5c-0.5,0-0.8-0.1-1-0.4    c-0.2-0.2-0.3-0.7-0.3-1.5v-3.6c0.1,0,0.2,0,0.3,0c0.1,0,0.2,0,0.3,0c0.2,0,0.4,0,0.8,0l4.2,5.8h3.3v-0.3    C202.7,68.8,202.2,68.6,201.7,68.4z"/>
		<path d="M210.9,59.4l2.1,5h-4.3L210.9,59.4z M214.4,68.1c0,0.2-0.1,0.4-0.3,0.5c-0.2,0.1-0.5,0.2-1,0.2v0.3h4.9v-0.3    c-0.5,0-0.9-0.2-1.2-0.4c-0.3-0.2-0.6-0.8-0.9-1.6l-4.3-10.3h-0.3l-4.4,10.2c-0.4,0.9-0.7,1.5-1,1.8c-0.2,0.1-0.5,0.3-1,0.4v0.3    h3.9v-0.3c-0.6,0-1-0.1-1.2-0.3c-0.2-0.1-0.3-0.3-0.3-0.5s0.1-0.6,0.3-1.1l0.8-2h4.8l0.7,1.8C214.3,67.4,214.4,67.8,214.4,68.1z"/>
		<path d="M220,56.8h10.1l0.1,2.9h-0.3c-0.1-0.5-0.2-0.9-0.3-1.1c-0.2-0.4-0.4-0.6-0.8-0.8c-0.3-0.2-0.7-0.3-1.2-0.3h-1.7V67    c0,0.8,0.1,1.2,0.2,1.4c0.2,0.3,0.6,0.4,1.1,0.4h0.4v0.3h-5.3v-0.3h0.4c0.5,0,0.9-0.2,1.1-0.5c0.1-0.2,0.2-0.6,0.2-1.3v-9.5h-1.5    c-0.6,0-1,0-1.2,0.1c-0.3,0.1-0.6,0.3-0.8,0.7c-0.2,0.3-0.4,0.8-0.4,1.3h-0.3L220,56.8z"/>
		<path d="M242.4,58.4c0.8,1,1.3,2.6,1.3,4.7c0,2-0.4,3.4-1.1,4.3c-0.8,0.9-1.7,1.4-2.9,1.4c-1.1,0-2-0.4-2.6-1.2    c-0.9-1.1-1.3-2.7-1.3-4.7c0-2,0.4-3.5,1.3-4.5c0.7-0.8,1.6-1.2,2.7-1.2C240.8,57.2,241.7,57.6,242.4,58.4z M235.6,58.2    c-1.3,1.2-2,2.8-2,4.8c0,1.9,0.6,3.5,1.7,4.7c1.2,1.2,2.6,1.8,4.3,1.8c1.7,0,3.1-0.6,4.3-1.9c1.2-1.2,1.8-2.8,1.8-4.7    c0-1.8-0.6-3.4-1.8-4.6c-1.2-1.2-2.6-1.8-4.2-1.8C238.2,56.5,236.8,57.1,235.6,58.2z"/>
		<path d="M255,57.5c0.8,0,1.4,0.2,1.9,0.7s0.7,1.1,0.7,1.9s-0.3,1.4-0.9,2c-0.6,0.5-1.5,0.8-2.7,0.8c-0.1,0-0.1,0-0.2,0    s-0.2,0-0.3,0v-5.2C254.1,57.6,254.6,57.5,255,57.5z M260.7,68.4c-0.4-0.3-0.9-0.8-1.5-1.6l-2.6-3.6c1-0.2,1.8-0.6,2.3-1.2    s0.7-1.2,0.7-2c0-0.7-0.2-1.3-0.7-1.8c-0.4-0.5-1-0.9-1.6-1.1s-1.6-0.3-2.9-0.3h-4.5v0.3h0.5c0.5,0,0.8,0.1,1.1,0.4    c0.2,0.2,0.3,0.7,0.3,1.5v8c0,0.7-0.1,1.2-0.2,1.3c-0.2,0.3-0.6,0.5-1.1,0.5H250v0.3h5.3v-0.3h-0.5c-0.5,0-0.8-0.1-1-0.4    c-0.2-0.2-0.3-0.7-0.3-1.5v-3.6c0.1,0,0.2,0,0.3,0c0.1,0,0.2,0,0.3,0c0.2,0,0.4,0,0.8,0l4.2,5.8h3.3v-0.3    C261.7,68.8,261.1,68.6,260.7,68.4z"/>
		<path d="M272.2,57.2v-0.3h4.3v0.3h-0.2c-0.2,0-0.4,0.1-0.7,0.2s-0.6,0.3-0.8,0.6c-0.2,0.3-0.6,0.7-0.9,1.3l-3,4.7v3.1    c0,0.8,0.1,1.2,0.3,1.4c0.2,0.3,0.6,0.4,1.1,0.4h0.4v0.3h-5.3v-0.3h0.4c0.5,0,0.9-0.2,1.1-0.5c0.1-0.2,0.2-0.6,0.2-1.3v-2.9    l-3.4-5.2c-0.4-0.6-0.7-1-0.8-1.1c-0.1-0.2-0.4-0.3-0.9-0.5c-0.1-0.1-0.3-0.1-0.5-0.1V57h5.3v0.3h-0.3c-0.3,0-0.5,0.1-0.8,0.2    c-0.2,0.1-0.4,0.3-0.4,0.6c0,0.2,0.2,0.6,0.6,1.2l2.6,4l2.4-3.8c0.4-0.6,0.5-1,0.5-1.3c0-0.2,0-0.3-0.1-0.5    c-0.1-0.1-0.2-0.2-0.4-0.3C272.8,57.2,272.6,57.2,272.2,57.2z"/>
		<path d="M115.5,65.8l0.3,0.1l-1.1,3.4h-9.6V69h0.5c0.5,0,0.9-0.2,1.1-0.5c0.1-0.2,0.2-0.6,0.2-1.4v-8c0-0.8-0.1-1.3-0.3-1.5    c-0.2-0.3-0.6-0.4-1.1-0.4H105v-0.3h5.6v0.3c-0.7,0-1.1,0.1-1.4,0.2s-0.4,0.3-0.5,0.5s-0.1,0.7-0.1,1.4v7.8c0,0.5,0,0.9,0.1,1    s0.2,0.2,0.3,0.3c0.2,0.1,0.6,0.1,1.4,0.1h0.9c1,0,1.6-0.1,2-0.2s0.7-0.4,1.1-0.7C114.8,67.1,115.2,66.6,115.5,65.8z"/>
		<path d="M139.6,65.8l0.3,0.1l-1.1,3.4h-9.5V69h0.5c0.5,0,0.9-0.2,1.1-0.5c0.1-0.2,0.2-0.6,0.2-1.4v-8c0-0.8-0.1-1.3-0.3-1.5    c-0.2-0.3-0.6-0.4-1.1-0.4h-0.4v-0.3h5.6v0.3c-0.7,0-1.1,0.1-1.4,0.2s-0.4,0.3-0.5,0.5s-0.1,0.7-0.1,1.4v7.8c0,0.5,0,0.9,0.1,1    s0.2,0.2,0.3,0.3c0.2,0.1,0.6,0.1,1.4,0.1h0.9c0.9,0,1.6-0.1,2-0.2s0.7-0.4,1.1-0.7C139,67.1,139.3,66.6,139.6,65.8z"/>
		<path d="M147.6,59.4l2.1,5h-4.3L147.6,59.4z M151,68.1c0,0.2-0.1,0.4-0.3,0.5c-0.2,0.1-0.5,0.2-1,0.2v0.3h4.9v-0.3    c-0.5,0-0.9-0.2-1.2-0.4c-0.3-0.2-0.6-0.8-0.9-1.6l-4.3-10.3h-0.3l-4.4,10.2c-0.4,0.9-0.7,1.5-1,1.8c-0.1,0.1-0.5,0.3-1,0.4v0.3    h3.9v-0.3c-0.6,0-1-0.1-1.2-0.3c-0.2-0.1-0.3-0.3-0.3-0.5s0.1-0.6,0.3-1.1l0.8-2h4.8l0.8,1.8C150.9,67.4,151,67.8,151,68.1z"/>
		<path d="M163.1,57.4c1.1,0,2,0.3,2.6,0.8s0.9,1.1,0.9,1.9c0,0.5-0.1,0.9-0.4,1.3c-0.2,0.4-0.6,0.7-1,0.9c-0.4,0.2-1.1,0.3-2,0.3    c-0.3,0-0.7,0-1,0s-0.5-0.1-0.8-0.1v-4.8C162,57.5,162.5,57.4,163.1,57.4z M168,61.8c0.4-0.5,0.6-1,0.6-1.7s-0.2-1.4-0.7-1.9    c-0.5-0.6-1.2-0.9-2.1-1.2c-0.6-0.1-1.4-0.2-2.4-0.2H158v0.3h0.5c0.5,0,0.8,0.1,1.1,0.4c0.2,0.2,0.3,0.7,0.3,1.5v8    c0,0.7-0.1,1.1-0.2,1.4c-0.2,0.3-0.6,0.5-1.1,0.5h-0.5v0.3h5.9c1.4,0,2.4-0.1,3.1-0.4s1.2-0.7,1.6-1.2c0.4-0.6,0.6-1.2,0.6-1.8    c0-0.8-0.3-1.5-0.9-2.1c-0.4-0.4-1.1-0.7-1.9-0.9C167,62.7,167.6,62.3,168,61.8z M162.1,63.2c0.3,0,0.6,0,1,0    c0.9,0,1.6,0.1,2.2,0.4s1,0.6,1.3,1.1c0.3,0.4,0.4,0.9,0.4,1.4c0,0.7-0.3,1.3-0.9,1.8s-1.4,0.7-2.5,0.7c-0.7,0-1.4-0.1-2.1-0.2    v-5.2C161.7,63.2,161.9,63.2,162.1,63.2z"/>
		<path d="M93.8,59.4l2.1,5h-4.3L93.8,59.4z M97.3,68.1c0,0.2-0.1,0.4-0.3,0.5c-0.2,0.1-0.5,0.2-1,0.2v0.3h4.9v-0.3    c-0.5,0-0.9-0.2-1.2-0.4c-0.3-0.2-0.6-0.8-0.9-1.6l-4.3-10.3h-0.3l-4.4,10.2c-0.4,0.9-0.7,1.5-1,1.8c-0.2,0.1-0.5,0.3-1,0.4v0.3    h3.9v-0.3c-0.6,0-1-0.1-1.2-0.3c-0.2-0.1-0.3-0.3-0.3-0.5s0.1-0.6,0.3-1.1l0.8-2h4.8l0.7,1.8C97.1,67.4,97.3,67.8,97.3,68.1z"/>
		<path d="M70.7,57.2v-0.3h3.4l7.6,9.3V59c0-0.8-0.1-1.2-0.3-1.4c-0.2-0.3-0.6-0.4-1.1-0.4h-0.4v-0.3h4.3v0.3h-0.4    c-0.5,0-0.9,0.2-1.1,0.5c-0.1,0.2-0.2,0.6-0.2,1.3v10.5h-0.3l-8.2-10v7.6c0,0.8,0.1,1.2,0.2,1.4c0.2,0.3,0.6,0.4,1.1,0.4h0.4v0.3    h-4.3v-0.3h0.4c0.5,0,0.9-0.2,1.1-0.5c0.1-0.2,0.2-0.6,0.2-1.3v-8.6c-0.4-0.4-0.6-0.7-0.8-0.8c-0.2-0.1-0.5-0.3-0.8-0.4    C71.4,57.2,71.1,57.2,70.7,57.2z"/>
	</g>
	<polygon points="168.5,50.7 158.4,50.7 158.4,40.5 155,40.5 155,50.7 145,50.7 145,26.7 155,26.7 155,35.4 158.4,35.4 158.4,26.7    168.5,26.7  "/>
	<polygon points="264.3,50.7 255.5,50.7 250.4,39.8 250.1,39.8 250.1,50.7 241.8,50.7 241.8,26.7 250.2,26.7 255.7,37.6 256,37.6    256,26.7 264.3,26.7  "/>
	<polygon points="239.4,50.7 222,50.7 222,26.7 239.3,26.7 239.3,31.3 232,31.3 232,36.2 238.8,36.2 238.8,40.5 232,40.5 232,46.1    239.4,46.1  "/>
	<polygon points="143.7,50.7 132.9,50.7 128.7,40.4 128.5,40.4 128.5,50.7 118.4,50.7 118.4,26.7 128.5,26.7 128.5,36.1 128.7,36.1    133.3,26.7 143.1,26.7 137.3,37.6  "/>
	<path d="M89.2,36.2c0-1.5,0-3.2-0.3-4.7c-0.9-4.5-7-5.3-11.7-5.3S66.4,27,65.5,31.5c-0.3,1.5-0.3,3.2-0.3,4.7v5.1   c0,1.5,0,3.2,0.3,4.7c0.9,4.5,7,5.3,11.7,5.3S88,50.5,88.9,46c0.3-1.5,0.3-3.2,0.3-4.7V36.2z M79.2,44.4c0,1.5-0.2,2.8-2,2.8   s-2-1.3-2-2.8V33.2c0-1.5,0.2-2.8,2-2.8s2,1.3,2,2.8V44.4z"/>
	<path d="M63,50.7h-9.8c0,0-0.1-6.2-0.2-8.1c0-1.9-0.6-2.2-2.1-2.2c-0.5,0-1.6,0-1.6,0v10.3h-9.9v-24h13.9c3.4,0,5.6,0.2,7.1,1   c1.8,1.1,2.4,2.5,2.4,5.3c0,3.6-1.8,5.4-5.6,5.6v0.3c1.7,0.3,3.4,0.5,4.4,1.4c1.1,0.9,1.2,2.2,1.3,3.7C62.9,45.5,63,50.7,63,50.7z    M50.7,36.9c1.4,0,2.3-0.5,2.3-2.3v-2.1c0-1.4-0.9-2-2-2c-0.6,0-1.8,0-1.8,0v6.4l0,0C49.8,36.9,50.2,36.9,50.7,36.9z"/>
	<path d="M36.9,44c0,2.6-0.2,4-2.1,5.3c-1.7,1.2-4.9,1.4-7.3,1.4H13.1v-24h15.2c3.1,0,5,0.3,6.4,1.5c1.1,1,1.5,2,1.5,4.1   c0,3.5-1.5,4.9-5.3,5.4V38c2.1,0.3,3.6,0.7,4.6,1.7C36.5,40.5,36.9,41.5,36.9,44z M24.5,46.9c1.4,0,2.4-0.4,2.4-2.4v-2.2   c0-1.8-0.8-2.4-2.2-2.4c-0.6,0-1.7,0-1.7,0v6.9C23,46.9,24.1,46.9,24.5,46.9z M24.5,36.4c1.4,0,2.3-0.4,2.3-2.4v-1.1   c0-1.8-0.8-2.4-2.2-2.4c-0.6,0-1.7,0-1.7,0v5.9C23,36.4,24.1,36.4,24.5,36.4z"/>
	<path d="M115.6,36.2c0-1.5,0-3.2-0.3-4.7c-0.9-4.5-7-5.3-11.7-5.3S92.8,27,91.9,31.5c-0.3,1.5-0.3,3.2-0.3,4.7v5.1   c0,1.5,0,3.2,0.3,4.7c0.9,4.5,7,5.3,11.7,5.3s10.8-0.8,11.7-5.3c0.3-1.5,0.3-3.2,0.3-4.7V36.2z M105.7,44.4c0,1.5-0.2,2.8-2,2.8   s-2-1.3-2-2.8V33.2c0-1.5,0.2-2.8,2-2.8s2,1.3,2,2.8V44.4z"/>
	<path class="st1" d="M180,44c0-0.8,0.3-1.5,0.9-2.1s1.3-0.9,2.1-0.9c0.8,0,1.5,0.3,2.1,0.9s0.9,1.3,0.9,2.1c0,1.6-1.3,3-3,3   C181.4,47,180,45.6,180,44z"/>
	<g>
		<path d="M210.2,26.7l-2.3,17.2h-0.7l-2.5-17.2h-3.8c-1.7,1.8-3.5,3.7-5.4,5.7l4.3,18.3h15.5l5.4-24H210.2z"/>
	</g>
	<path d="M178.6,44c0-1.2,0.5-2.3,1.3-3.1c0.5-0.5,1.1-0.9,1.8-1.1l0.9-6.8h0.7l1,6.7c0.5,0.1,1,0.4,1.4,0.7   c2.4-2.8,4.6-5.4,6.4-7.7l-1.4-6h-15.5l-5.4,24h10.5l0.4-3C179.4,47,178.6,45.6,178.6,44z"/>
	<path d="M192.7,35.3c-1.9,1.9-4,3.9-6.1,5.9c0.6,0.8,0.9,1.7,0.9,2.7c0,1.6-0.8,3-2.1,3.8l0.4,3h10.5L192.7,35.3z"/>
</g>
</svg>